<svg width="428" height="428" viewBox="0 0 428 428" fill="none" xmlns="http://www.w3.org/2000/svg">
<path fill-rule="evenodd" clip-rule="evenodd" d="M230.064 133.287L230.047 133.321L230.111 133.313L281.196 10.2397L310.554 22.4412L259.967 144.576L353.929 51.4076L376.331 73.7038L282.607 168.237L405.453 117.345L417.694 146.776L293.706 197.988H293.752C295.643 199.322 297.656 197.528 299.741 197.527L428 197.48V229.598H294.98L294.988 229.624L417.622 280.912L405.475 310.339L283.425 259.853L283.408 259.861L376.697 353.789L362.099 368.152L353.592 376.204L260.048 282.942L310.481 405.222L281.124 417.47L229.723 294.896V428L197.574 427.829L197.527 295.805L146.876 417.398L117.421 405.171L168.357 282.511L73.7301 376.179L51.4009 353.836L145.061 260.194L145.069 260.181C145.058 260.175 145.046 260.174 145.035 260.168L22.474 310.339L10.2546 281.006L133.348 230.038C133.346 230.028 133.342 230.017 133.34 230.008L0 229.65L0.170484 197.502L131.358 197.455C130.246 196.187 128.798 195.508 126.631 194.93L10.2802 146.798L22.4996 117.469L143.748 167.469L143.773 167.444V167.435L143.748 167.422L51.4009 74.1644L74.1904 51.382L166.951 144.009L117.442 22.4157L146.876 10.2397L197.527 131.321L197.574 0.170591L229.723 0L230.064 133.287ZM229.697 294.858H229.706L229.697 294.837V294.858Z" fill="white"/>
</svg>
