<svg width="428" height="428" viewBox="0 0 428 428" fill="none" xmlns="http://www.w3.org/2000/svg">
<path d="M143.774 167.445L144.356 166.402C156.552 171.035 168.843 176.009 181.233 181.298L184.215 184.452C184.651 183.869 185.33 183.045 185.864 183.19C188.046 183.869 204.484 190.42 205.139 191.244C205.624 191.851 205.697 192.627 205.648 193.379C205.915 192.749 206.448 191.827 206.884 191.948C212.655 193.671 227.929 199.808 232.924 202.744L233.215 204.806L235.639 203.884C236.682 203.884 254.26 211.041 254.914 211.841C255.423 212.448 255.496 213.224 255.423 213.976L259.715 213.831C271.449 218.658 283.111 223.535 294.676 228.436L294.991 229.624L417.624 280.91L405.477 310.338L283.427 259.853L281.972 261.187L246.234 246.146L243.276 242.967C242.84 243.55 242.21 244.35 241.628 244.229C239.009 243.647 225.699 238.14 223.323 236.732L222.789 234.573C222.353 235.156 221.674 236.005 221.14 235.835C215.516 233.991 197.913 227.295 193.622 224.457L193.089 222.298C192.653 222.856 191.974 223.705 191.465 223.559C187.755 222.443 180.384 219.313 176.917 217.47C174.032 216.888 172.602 215.65 172.577 213.71L168.262 213.879L134.61 200.148L134.318 198.086C133.155 198.207 132.161 198.013 131.385 197.479C130.27 196.193 128.815 195.514 126.633 194.932L10.2802 146.8L22.4998 117.469L143.75 167.469L143.774 167.445Z" fill="#FED202"/>
<path d="M222.79 234.549C223.347 234.985 224.196 235.665 224.026 236.199C222.863 239.862 219.444 247.892 217.553 251.24C216.995 253.909 215.783 255.219 213.916 255.146L214.061 259.488L200.121 293.283L198.06 293.574C198.229 294.569 198.06 295.297 197.55 295.757L146.878 417.399L117.42 405.172L168.359 282.511L167.026 281.056C171.899 269.386 176.797 257.693 181.67 246L184.846 243.016C184.264 242.579 183.415 241.948 183.561 241.415C184.24 238.673 189.598 224.893 190.98 222.783L193.113 222.249L222.79 234.549Z" fill="#0A2CFC"/>
<path d="M259.86 144.689C260.49 145.028 261.363 145.683 261.193 146.144C257.629 155.945 252.344 169.143 247.664 178.362C246.913 180.957 245.458 182.656 243.252 184.257C243.858 184.597 244.755 185.203 244.61 185.664C243.882 187.969 237.263 204.781 236.269 205.145L233.214 204.829L205.648 193.403C205.065 192.966 204.217 192.311 204.362 191.802C205.114 189.327 211.515 173.412 212.63 172.903C213.018 172.733 213.479 172.733 213.964 172.806L213.818 168.464L228.05 133.626L230.111 133.31L281.195 10.2378L310.556 22.4408L259.908 144.737L259.86 144.689Z" fill="#0A2CFC"/>
<path d="M293.755 197.988L293.876 199.881L260.176 213.928C258.648 214.243 257.072 214.243 255.399 213.976L233.166 204.805C234.548 204.708 235.106 203.908 235.663 202.525L243.204 184.209L246.186 181.079C257.751 176.397 269.316 171.69 280.881 167.008L282.53 168.27L405.453 117.347L417.697 146.775L293.706 197.988H293.755Z" fill="#F868C2"/>
<path d="M193.113 222.273L184.845 243.04L181.911 246.169L150.272 259.1C148.235 260.628 146.489 260.968 145.035 260.168L22.4753 310.337L10.2557 281.007L133.349 230.036C133.154 229.357 132.961 228.289 133.421 228.071C142.537 223.704 154.175 218.925 163.728 215.456C166.686 214.048 169.231 213.005 172.601 213.709L193.113 222.297V222.273Z" fill="#F868C2"/>
<path d="M243.252 242.943L246.428 245.878L261.266 281.225L260.029 282.9L310.484 405.22L281.123 417.471L229.699 294.835C228.219 294.52 227.347 293.283 227.056 291.124L213.769 259.415L213.916 255.146L222.79 234.549L243.252 242.943Z" fill="#FE110E"/>
<path d="M197.525 131.345C198.083 131.952 198.301 132.922 198.156 134.256L200.12 134.329L213.527 167.056C214.206 168.803 214.352 170.696 213.94 172.758L205.623 193.354L184.215 184.402L181.111 181.443L167.679 147.842C166.613 146.556 166.37 145.295 166.952 144.009L117.443 22.4165L146.877 10.2378L197.525 131.321V131.345Z" fill="#FE110E"/>
<path d="M283.402 259.852L376.697 353.788L362.101 368.15L353.591 376.205L260.029 282.924L243.252 242.943L283.402 259.852Z" fill="#01B835"/>
<path d="M229.723 294.859V428L197.574 427.83L197.525 298.45L198.06 293.574L213.916 255.146L228.705 290.468C229.359 292.07 229.747 293.477 229.699 294.859H229.723Z" fill="#00ADEE"/>
<path d="M166.952 144.033C167.777 144.688 168.747 145.78 169.28 147.115L184.191 184.427L146.538 168.925L143.75 167.421L51.4 74.1638L74.1905 51.3836L166.952 144.009V144.033Z" fill="#01B835"/>
<path d="M294.967 229.624C293.318 229.624 291.766 229.09 289.948 228.338L255.399 213.976L293.755 197.988C295.646 199.323 297.658 197.527 299.743 197.527L428 197.479V229.599H294.967V229.624Z" fill="#005E0A"/>
<path d="M230.063 133.286L213.94 172.782L198.156 134.256L197.525 128.676L197.574 0.169821L229.723 0L230.063 133.286Z" fill="#00ADEE"/>
<path d="M128.718 197.455L134.342 198.061L172.601 213.685L133.349 230.012L0 229.648L0.169715 197.503L128.718 197.455Z" fill="#005E0A"/>
<path d="M184.845 243.04L168.359 282.511L73.7296 376.18L51.4 353.837L145.059 260.192C146.369 258.93 148.114 258.081 150.126 257.256L184.846 243.064L184.845 243.04Z" fill="#FE5700"/>
<path d="M282.577 168.269L243.227 184.232L259.86 144.689L353.93 51.4072L376.333 73.7026L282.577 168.269Z" fill="#FE5700"/>
<path d="M131.385 197.455C132.427 197.455 133.397 197.673 134.318 198.061C132.403 198.474 130.075 198.837 128.694 197.455H131.385Z" fill="#8EB68A"/>
<path d="M198.156 134.256C197.768 133.334 197.525 132.388 197.525 131.345V128.652C198.907 130.035 198.544 132.34 198.156 134.256Z" fill="#8FD0EC"/>
<path d="M197.525 298.426V295.732C197.574 295.053 197.792 294.204 198.059 293.549C198.568 295.223 198.859 297.309 197.525 298.426Z" fill="#89D6F6"/>
</svg>
