<svg width="450" height="98" viewBox="0 0 450 98" fill="none" xmlns="http://www.w3.org/2000/svg">
<path d="M32.9425 38.3422L33.0758 38.1033C35.8701 39.1643 38.6865 40.3032 41.5253 41.5142L42.2085 42.2364C42.3085 42.103 42.4641 41.9142 42.5863 41.9475C43.0863 42.103 46.8527 43.603 47.0027 43.7918C47.1138 43.9307 47.1305 44.1085 47.1194 44.2807C47.1805 44.1363 47.3027 43.9252 47.4027 43.9529C48.7248 44.3474 52.2246 45.7528 53.369 46.425L53.4356 46.8972L53.9911 46.6861C54.23 46.6861 58.2576 48.3249 58.4075 48.5082C58.5242 48.6471 58.5409 48.8249 58.5242 48.9971L59.5075 48.9637C62.1962 50.0692 64.8682 51.1858 67.5181 52.308L67.5903 52.5802L95.6886 64.3239L92.9054 71.0624L64.9405 59.502L64.6072 59.8075L56.4188 56.3633L55.741 55.6355C55.641 55.7689 55.4966 55.9522 55.3633 55.9244C54.7633 55.7911 51.7135 54.5301 51.1691 54.2078L51.0469 53.7134C50.9469 53.8468 50.7913 54.0412 50.6691 54.0023C49.3803 53.5801 45.3472 52.0469 44.364 51.3969L44.2418 50.9025C44.1418 51.0303 43.9862 51.2247 43.8696 51.1914C43.0196 50.9358 41.3308 50.2192 40.5364 49.797C39.8754 49.6637 39.5476 49.3804 39.542 48.936L38.5532 48.9748L32.2314 46.3972L30.8426 45.8306L30.7759 45.3584C30.5093 45.3862 30.2815 45.3417 30.1037 45.2195C29.8482 44.9251 29.5149 44.7695 29.0149 44.6362L2.35547 33.6147L5.1553 26.8984L32.9369 38.3477L32.9425 38.3422Z" fill="#FED202"/>
<path d="M51.047 53.7079C51.1748 53.8078 51.3692 53.9634 51.3303 54.0856C51.0637 54.9244 50.2804 56.7632 49.8471 57.5298C49.7193 58.1409 49.4415 58.4409 49.0138 58.4242L49.0471 59.4186L45.8529 67.157L45.3807 67.2237C45.4196 67.4514 45.3807 67.6181 45.264 67.7236L33.6536 95.5775L26.9041 92.7777L38.5756 64.6905L38.27 64.3572C39.3866 61.6851 40.5088 59.0075 41.6254 56.3299L42.3531 55.6466C42.2198 55.5466 42.0253 55.4022 42.0587 55.28C42.2142 54.6522 43.4419 51.4969 43.7586 51.0136L44.2474 50.8914L51.047 53.7079Z" fill="#0A2CFC"/>
<path d="M59.5407 33.1313C59.6851 33.209 59.8851 33.359 59.8462 33.4646C59.0296 35.7089 57.8186 38.7309 56.7464 40.8419C56.5742 41.4363 56.2409 41.8252 55.7354 42.1918C55.8743 42.2696 56.0798 42.4085 56.0465 42.514C55.8798 43.0418 54.3632 46.8915 54.1355 46.9749L53.4355 46.9026L47.1193 44.2861C46.9859 44.1861 46.7915 44.0361 46.8248 43.9195C46.997 43.3529 48.4636 39.7086 48.7192 39.592C48.808 39.5531 48.9136 39.5531 49.0247 39.5698L48.9914 38.5754L52.2523 30.5981L52.7245 30.5259L64.4293 2.3443L71.1566 5.13857L59.5518 33.1424L59.5407 33.1313Z" fill="#0A2CFC"/>
<path d="M67.307 45.3361L67.3348 45.7694L59.6131 48.9859C59.2631 49.0581 58.902 49.0581 58.5187 48.997L53.4246 46.8971C53.7412 46.8749 53.869 46.6916 53.9967 46.3749L55.7244 42.1808L56.4077 41.4641C59.0575 40.392 61.7074 39.3143 64.3572 38.2421L64.735 38.531L92.8999 26.8706L95.7053 33.6091L67.2959 45.3361H67.307Z" fill="#F868C2"/>
<path d="M44.2473 50.8968L42.3529 55.6521L41.6807 56.3687L34.4312 59.3296C33.9646 59.6796 33.5646 59.7574 33.2313 59.5741L5.14968 71.0622L2.34985 64.346L30.5537 52.6745C30.5092 52.519 30.4648 52.2745 30.5703 52.2245C32.6591 51.2246 35.3256 50.1302 37.5143 49.3358C38.1921 49.0136 38.7754 48.7747 39.5475 48.9358L44.2473 50.9024V50.8968Z" fill="#F868C2"/>
<path d="M55.7354 55.6299L56.4631 56.3021L59.8629 64.396L59.5796 64.7794L71.14 92.7887L64.4126 95.5941L52.63 67.5125C52.2911 67.4403 52.0911 67.157 52.0245 66.6626L48.9802 59.4019L49.0136 58.4242L51.0468 53.7078L55.7354 55.6299Z" fill="#FE110E"/>
<path d="M45.2583 30.0759C45.3861 30.2148 45.4361 30.437 45.4027 30.7425L45.8527 30.7592L48.9247 38.2532C49.0803 38.6532 49.1136 39.0865 49.0192 39.5587L47.1137 44.275L42.2085 42.2251L41.4974 41.5474L38.4198 33.8534C38.1754 33.559 38.1198 33.2702 38.2532 32.9757L26.9094 5.13302L33.6534 2.3443L45.2583 30.0704V30.0759Z" fill="#FE110E"/>
<path d="M64.9348 59.5019L86.3112 81.0116L82.967 84.3003L81.0171 86.1447L59.5796 64.7849L55.7354 55.6299L64.9348 59.5019Z" fill="#01B835"/>
<path d="M52.6356 67.518V98.005L45.2694 97.9661L45.2583 68.3402L45.3805 67.2236L49.0136 58.4241L52.4023 66.5125C52.5523 66.8792 52.6412 67.2014 52.6301 67.518H52.6356Z" fill="#00ADEE"/>
<path d="M38.2532 32.9813C38.4421 33.1313 38.6643 33.3813 38.7865 33.6869L42.203 42.2308L33.5757 38.681L32.9369 38.3366L11.7771 16.9823L16.999 11.766L38.2532 32.9758V32.9813Z" fill="#01B835"/>
<path d="M67.5847 52.5801C67.2069 52.5801 66.8514 52.4579 66.4347 52.2857L58.5186 48.997L67.3069 45.3361C67.7402 45.6416 68.2013 45.2305 68.679 45.2305L98.0661 45.2194V52.5745H67.5847V52.5801Z" fill="#005E0A"/>
<path d="M52.7134 30.5203L49.0192 39.5642L45.4027 30.7425L45.2583 29.4648L45.2694 0.0388863L52.6356 0L52.7134 30.5203Z" fill="#00ADEE"/>
<path d="M29.4926 45.2139L30.7814 45.3527L39.5475 48.9303L30.5537 52.669L0 52.5856L0.0388863 45.225L29.4926 45.2139Z" fill="#005E0A"/>
<path d="M42.353 55.6522L38.5754 64.6905L16.8934 86.1391L11.7771 81.0228L33.2369 59.5797C33.5369 59.2908 33.9368 59.0964 34.3979 58.9075L42.353 55.6577V55.6522Z" fill="#FE5700"/>
<path d="M64.7458 38.5309L55.7297 42.1862L59.5406 33.1312L81.0948 11.7714L86.2278 16.8767L64.7458 38.5309Z" fill="#FE5700"/>
<path d="M30.1037 45.2139C30.3426 45.2139 30.5648 45.2639 30.7759 45.3527C30.337 45.4472 29.8037 45.5305 29.4871 45.2139H30.1037Z" fill="#8EB68A"/>
<path d="M45.4027 30.7425C45.3139 30.5314 45.2583 30.3147 45.2583 30.0759V29.4592C45.5749 29.7759 45.4916 30.3036 45.4027 30.7425Z" fill="#8FD0EC"/>
<path d="M45.2583 68.3346V67.7179C45.2694 67.5624 45.3194 67.3679 45.3805 67.218C45.4972 67.6013 45.5638 68.079 45.2583 68.3346Z" fill="#89D6F6"/>
<path d="M139.825 77.1775H130.582V21.1665H143.854L162.419 66.2755H162.498L180.984 21.1665H194.256V77.1775H184.934V34.1225H184.776L166.843 77.1775H157.995L139.983 34.2015H139.825V77.1775Z" fill="black"/>
<path d="M222.765 78.7575C218.394 78.7575 214.549 77.8622 211.231 76.0715C207.966 74.2808 205.411 71.7528 203.568 68.4875C201.777 65.2222 200.882 61.4302 200.882 57.1115C200.882 52.7928 201.777 49.0008 203.568 45.7355C205.411 42.4175 207.966 39.8632 211.231 38.0725C214.549 36.2818 218.394 35.3865 222.765 35.3865C227.136 35.3865 230.955 36.2818 234.22 38.0725C237.538 39.8632 240.092 42.4175 241.883 45.7355C243.726 49.0008 244.648 52.7928 244.648 57.1115C244.648 61.4302 243.726 65.2222 241.883 68.4875C240.092 71.7528 237.538 74.2808 234.22 76.0715C230.955 77.8622 227.136 78.7575 222.765 78.7575ZM222.765 71.1735C226.715 71.1735 229.875 69.9095 232.245 67.3815C234.615 64.8008 235.8 61.3775 235.8 57.1115C235.8 52.8455 234.615 49.4485 232.245 46.9205C229.875 44.3925 226.715 43.1285 222.765 43.1285C218.762 43.1285 215.576 44.3925 213.206 46.9205C210.889 49.4485 209.73 52.8455 209.73 57.1115C209.73 61.3775 210.889 64.8008 213.206 67.3815C215.576 69.9095 218.762 71.1735 222.765 71.1735Z" fill="black"/>
<path d="M264.038 78.5205C259.667 78.5205 256.217 77.2302 253.689 74.6495C251.214 72.0162 249.976 68.3822 249.976 63.7475V36.9665H258.903V61.6145C258.903 64.5112 259.693 66.8022 261.273 68.4875C262.853 70.1728 264.96 71.0155 267.593 71.0155C270.911 71.0155 273.624 69.9358 275.73 67.7765C277.89 65.6172 278.969 62.8258 278.969 59.4025V36.9665H287.896V77.1775H280.154L279.048 70.5415H278.969C275.546 75.8608 270.569 78.5205 264.038 78.5205Z" fill="black"/>
<path d="M318.895 77.1775H307.756L292.193 36.9665H301.515L313.365 69.6725H313.523L325.373 36.9665H334.537L318.895 77.1775Z" fill="black"/>
<path d="M359.323 78.7575C355.163 78.7575 351.423 77.8358 348.105 75.9925C344.787 74.1492 342.18 71.5948 340.284 68.3295C338.441 65.0642 337.519 61.3775 337.519 57.2695C337.519 53.2142 338.362 49.5802 340.047 46.3675C341.785 43.1022 344.155 40.5742 347.157 38.7835C350.212 36.9402 353.635 36.0185 357.427 36.0185C361.061 36.0185 364.274 36.9402 367.065 38.7835C369.909 40.5742 372.148 43.1022 373.78 46.3675C375.413 49.5802 376.308 53.2405 376.466 57.3485V58.4545H340.679C340.837 61.7725 341.733 64.7482 343.365 67.3815C344.998 70.0148 347.21 72.0688 350.001 73.5435C352.793 75.0182 355.926 75.7555 359.402 75.7555C362.773 75.7555 365.907 74.9128 368.803 73.2275C371.753 71.5422 373.938 69.3565 375.36 66.6705L378.125 68.0135C376.545 71.2262 374.017 73.8332 370.541 75.8345C367.118 77.7832 363.379 78.7575 359.323 78.7575ZM373.227 55.4525C373.017 52.2398 372.2 49.3958 370.778 46.9205C369.356 44.3925 367.487 42.4438 365.169 41.0745C362.852 39.7052 360.245 39.0205 357.348 39.0205C354.346 39.0205 351.608 39.7315 349.132 41.1535C346.71 42.5228 344.761 44.4715 343.286 46.9995C341.812 49.4748 340.969 52.2925 340.758 55.4525H373.227Z" fill="black"/>
<path d="M398.62 78.7575C395.671 78.7575 392.959 78.2308 390.483 77.1775C388.008 76.0715 385.954 74.5442 384.321 72.5955C382.741 70.5942 381.767 68.3558 381.398 65.8805L384.479 65.0115C384.795 68.1188 386.27 70.6995 388.903 72.7535C391.589 74.7548 394.802 75.7555 398.541 75.7555C400.806 75.7555 402.886 75.3605 404.782 74.5705C406.678 73.7805 408.153 72.7008 409.206 71.3315C410.312 69.9622 410.865 68.4348 410.865 66.7495C410.865 64.8008 410.049 63.2208 408.416 62.0095C406.836 60.7982 404.256 59.7448 400.674 58.8495L394.828 57.4275C390.931 56.4795 388.087 55.2155 386.296 53.6355C384.558 52.0555 383.689 50.0015 383.689 47.4735C383.689 45.3142 384.269 43.3655 385.427 41.6275C386.586 39.8895 388.166 38.5202 390.167 37.5195C392.169 36.5188 394.433 36.0185 396.961 36.0185C400.49 36.0185 403.518 36.9928 406.046 38.9415C408.574 40.8375 410.181 43.3392 410.865 46.4465L407.863 47.3945C407.495 44.9192 406.283 42.9178 404.229 41.3905C402.228 39.8105 399.805 39.0205 396.961 39.0205C394.065 39.0205 391.642 39.8368 389.693 41.4695C387.745 43.0495 386.77 44.9982 386.77 47.3155C386.77 49.1062 387.481 50.5808 388.903 51.7395C390.325 52.8982 392.59 53.8462 395.697 54.5835L401.543 56.0055C405.915 57.0588 409.075 58.4018 411.023 60.0345C412.972 61.6672 413.946 63.8002 413.946 66.4335C413.946 68.8035 413.262 70.9365 411.892 72.8325C410.576 74.6758 408.732 76.1242 406.362 77.1775C404.045 78.2308 401.464 78.7575 398.62 78.7575Z" fill="black"/>
<path d="M434.34 78.7575C431.391 78.7575 428.678 78.2308 426.203 77.1775C423.728 76.0715 421.674 74.5442 420.041 72.5955C418.461 70.5942 417.487 68.3558 417.118 65.8805L420.199 65.0115C420.515 68.1188 421.99 70.6995 424.623 72.7535C427.309 74.7548 430.522 75.7555 434.261 75.7555C436.526 75.7555 438.606 75.3605 440.502 74.5705C442.398 73.7805 443.873 72.7008 444.926 71.3315C446.032 69.9622 446.585 68.4348 446.585 66.7495C446.585 64.8008 445.769 63.2208 444.136 62.0095C442.556 60.7982 439.975 59.7448 436.394 58.8495L430.548 57.4275C426.651 56.4795 423.807 55.2155 422.016 53.6355C420.278 52.0555 419.409 50.0015 419.409 47.4735C419.409 45.3142 419.988 43.3655 421.147 41.6275C422.306 39.8895 423.886 38.5202 425.887 37.5195C427.888 36.5188 430.153 36.0185 432.681 36.0185C436.21 36.0185 439.238 36.9928 441.766 38.9415C444.294 40.8375 445.9 43.3392 446.585 46.4465L443.583 47.3945C443.214 44.9192 442.003 42.9178 439.949 41.3905C437.948 39.8105 435.525 39.0205 432.681 39.0205C429.784 39.0205 427.362 39.8368 425.413 41.4695C423.464 43.0495 422.49 44.9982 422.49 47.3155C422.49 49.1062 423.201 50.5808 424.623 51.7395C426.045 52.8982 428.31 53.8462 431.417 54.5835L437.263 56.0055C441.634 57.0588 444.794 58.4018 446.743 60.0345C448.692 61.6672 449.666 63.8002 449.666 66.4335C449.666 68.8035 448.981 70.9365 447.612 72.8325C446.295 74.6758 444.452 76.1242 442.082 77.1775C439.765 78.2308 437.184 78.7575 434.34 78.7575Z" fill="black"/>
</svg>
