<svg width="406" height="98" viewBox="0 0 406 98" fill="none" xmlns="http://www.w3.org/2000/svg">
<path d="M97.1331 30H93.3891V12.912H98.7411L103.733 25.416H103.781L108.797 12.912H114.101V30H110.333V18H110.285L105.413 30H102.077L97.1811 18.024H97.1331V30Z" fill="black"/>
<path d="M122.781 30.48C118.677 30.48 115.965 27.864 115.965 23.856C115.965 19.848 118.677 17.232 122.781 17.232C126.909 17.232 129.621 19.848 129.621 23.856C129.621 27.864 126.909 30.48 122.781 30.48ZM122.781 27.432C124.749 27.432 125.997 26.064 125.997 23.856C125.997 21.648 124.749 20.28 122.781 20.28C120.813 20.28 119.565 21.648 119.565 23.856C119.565 26.064 120.813 27.432 122.781 27.432Z" fill="black"/>
<path d="M135.099 30.36C132.579 30.36 131.043 28.8 131.043 26.184V17.712H134.715V25.056C134.715 26.448 135.507 27.312 136.779 27.312C138.363 27.312 139.467 26.184 139.467 24.504V17.712H143.139V30H140.043L139.491 27.768H139.467C138.579 29.424 137.043 30.36 135.099 30.36Z" fill="black"/>
<path d="M153.412 30H148.924L144.268 17.712H148.036L151.18 27H151.228L154.372 17.712H158.14L153.412 30Z" fill="black"/>
<path d="M165.426 30.48C161.106 30.48 158.082 27.744 158.082 23.784C158.058 19.896 160.77 17.232 164.706 17.232C168.546 17.232 171.066 19.776 171.09 23.472C171.09 23.952 171.018 24.48 170.922 24.864H161.85C162.066 26.64 163.554 27.792 165.57 27.792C167.106 27.792 168.546 27.096 169.266 26.112L171.354 27.72C170.37 29.352 168.066 30.48 165.426 30.48ZM161.826 22.752H167.37C167.25 20.928 166.218 19.848 164.706 19.848C163.17 19.848 162.042 21.024 161.826 22.752Z" fill="black"/>
<path d="M176.435 30H172.763V17.712H175.715L176.267 19.944H176.291C176.963 18.312 178.595 17.352 180.491 17.352C182.411 17.352 183.683 18.288 184.211 20.04H184.235C185.171 18.216 186.803 17.352 188.675 17.352C191.099 17.352 192.539 18.984 192.539 21.768V30H188.867V22.584C188.867 21.24 188.123 20.448 186.899 20.448C185.363 20.448 184.475 21.576 184.475 23.256V30H180.827V22.584C180.827 21.24 180.083 20.448 178.835 20.448C177.323 20.448 176.435 21.576 176.435 23.256V30Z" fill="black"/>
<path d="M201.332 30.48C197.012 30.48 193.988 27.744 193.988 23.784C193.964 19.896 196.676 17.232 200.612 17.232C204.452 17.232 206.972 19.776 206.996 23.472C206.996 23.952 206.924 24.48 206.828 24.864H197.756C197.972 26.64 199.46 27.792 201.476 27.792C203.012 27.792 204.452 27.096 205.172 26.112L207.26 27.72C206.276 29.352 203.972 30.48 201.332 30.48ZM197.732 22.752H203.276C203.156 20.928 202.124 19.848 200.612 19.848C199.076 19.848 197.948 21.024 197.732 22.752Z" fill="black"/>
<path d="M216.71 17.352C219.23 17.352 220.766 18.912 220.766 21.528V30H217.094V22.656C217.094 21.264 216.302 20.4 215.03 20.4C213.446 20.4 212.342 21.528 212.342 23.208V30H208.67V17.712H211.766L212.318 19.944H212.342C213.23 18.288 214.766 17.352 216.71 17.352Z" fill="black"/>
<path d="M228.621 30.48C225.669 30.48 223.845 28.728 223.845 25.944V20.496H221.541V17.712H223.845V14.328L227.517 13.536V17.712H232.389V20.496H227.517V25.368C227.517 26.712 228.357 27.528 229.437 27.528C230.541 27.528 231.357 27 231.933 25.944L233.037 28.248C232.173 29.64 230.397 30.48 228.621 30.48Z" fill="black"/>
<path d="M246.754 30.48C243.202 30.48 240.586 27.72 240.586 23.952C240.586 20.16 243.178 17.4 246.73 17.4C248.746 17.4 250.378 18.336 251.41 19.92H251.434V12.36H253.282V30H251.674L251.506 27.912H251.482C250.45 29.52 248.77 30.48 246.754 30.48ZM246.97 28.824C249.586 28.824 251.506 26.688 251.506 23.952C251.506 21.192 249.586 19.08 246.97 19.08C244.33 19.08 242.41 21.192 242.41 23.952C242.41 26.736 244.354 28.824 246.97 28.824Z" fill="black"/>
<path d="M261.907 30.48C258.043 30.48 255.211 27.672 255.211 23.808C255.211 20.088 257.803 17.4 261.403 17.4C264.955 17.4 267.283 20.088 267.331 23.832C267.331 24.048 267.331 24.312 267.307 24.552H257.107C257.371 27.072 259.315 28.824 261.931 28.824C263.827 28.824 265.435 27.84 266.107 26.52L267.691 27.168C266.899 29.112 264.619 30.48 261.907 30.48ZM257.131 22.944H265.387C265.147 20.472 263.587 19.08 261.379 19.08C259.123 19.08 257.467 20.64 257.131 22.944Z" fill="black"/>
<path d="M274.488 30.48C271.464 30.48 268.968 28.92 268.752 26.328L270.552 25.968C270.696 27.648 272.328 28.824 274.488 28.824C276.384 28.824 277.848 27.936 277.848 26.688C277.848 25.752 276.96 25.176 274.92 24.768L273 24.384C270.48 23.856 269.4 22.848 269.4 21.072C269.424 18.96 271.296 17.4 273.888 17.4C276.432 17.4 278.328 18.768 278.784 20.736L277.032 21.216C276.864 19.944 275.592 19.008 273.864 19.008C272.328 19.008 271.2 19.944 271.176 20.976C271.176 21.864 271.896 22.368 273.576 22.728L275.544 23.112C278.4 23.712 279.624 24.72 279.624 26.52C279.624 28.8 277.416 30.48 274.488 30.48Z" fill="black"/>
<path d="M6.696 57.48C2.832 57.48 0 54.672 0 50.808C0 47.088 2.592 44.4 6.192 44.4C9.744 44.4 12.072 47.088 12.12 50.832C12.12 51.048 12.12 51.312 12.096 51.552H1.896C2.16 54.072 4.104 55.824 6.72 55.824C8.616 55.824 10.224 54.84 10.896 53.52L12.48 54.168C11.688 56.112 9.408 57.48 6.696 57.48ZM1.92 49.944H10.176C9.936 47.472 8.376 46.08 6.168 46.08C3.912 46.08 2.256 47.64 1.92 49.944Z" fill="black"/>
<path d="M20.7653 44.4C23.5493 44.4 25.2533 46.176 25.2533 49.176V57H23.4053V49.368C23.4053 47.304 22.1812 45.984 20.2612 45.984C17.8372 45.984 16.0853 47.688 16.0853 50.16V57H14.2612V44.88H15.9172L16.0853 46.68H16.1092C17.1412 45.216 18.6533 44.4 20.7653 44.4Z" fill="black"/>
<path d="M32.3381 57.48C30.0581 57.48 28.5221 55.944 28.5221 53.736V46.392H25.8581V44.88H28.5221V41.28L30.3461 40.848V44.88H35.7701V46.392H30.3461V53.544C30.3461 54.912 31.1861 55.896 32.5061 55.896C33.7301 55.896 34.8581 55.008 35.0981 53.448L36.5861 54.072C36.2501 56.184 34.4021 57.48 32.3381 57.48Z" fill="black"/>
<path d="M43.1423 44.376C45.2062 44.376 46.6223 45.744 46.8623 48.168L45.2783 48.696C45.0863 46.992 44.1983 46.08 42.8783 46.08C40.9342 46.08 39.7103 47.688 39.7103 50.328V57H37.8862V44.88H39.4463L39.6143 46.776H39.6382C40.3102 45.312 41.6062 44.376 43.1423 44.376Z" fill="black"/>
<path d="M54.5319 57.48C50.6679 57.48 47.8359 54.672 47.8359 50.808C47.8359 47.088 50.4279 44.4 54.0279 44.4C57.5799 44.4 59.9079 47.088 59.9559 50.832C59.9559 51.048 59.9559 51.312 59.9319 51.552H49.7319C49.9959 54.072 51.9399 55.824 54.5559 55.824C56.4519 55.824 58.0599 54.84 58.7319 53.52L60.3159 54.168C59.5239 56.112 57.2439 57.48 54.5319 57.48ZM49.7559 49.944H58.0119C57.7719 47.472 56.2119 46.08 54.0039 46.08C51.7479 46.08 50.0919 47.64 49.7559 49.944Z" fill="black"/>
<path d="M63.9212 62.04H62.0972V44.88H63.6812L63.8732 46.968H63.8972C64.9292 45.36 66.5852 44.4 68.6252 44.4C72.1772 44.4 74.7932 47.16 74.7932 50.952C74.7932 54.72 72.1772 57.48 68.6492 57.48C66.6332 57.48 65.0012 56.544 63.9452 54.984H63.9212V62.04ZM68.4092 55.8C71.0492 55.8 72.9452 53.688 72.9452 50.952C72.9452 48.144 71.0252 46.08 68.4092 46.08C65.7932 46.08 63.8732 48.192 63.8732 50.952C63.8732 53.688 65.7932 55.8 68.4092 55.8Z" fill="black"/>
<path d="M81.9782 44.376C84.0422 44.376 85.4582 45.744 85.6982 48.168L84.1142 48.696C83.9222 46.992 83.0342 46.08 81.7142 46.08C79.7702 46.08 78.5462 47.688 78.5462 50.328V57H76.7222V44.88H78.2822L78.4502 46.776H78.4742C79.1462 45.312 80.4422 44.376 81.9782 44.376Z" fill="black"/>
<path d="M88.4902 42.528C87.6742 42.528 87.1462 42 87.1462 41.184C87.1462 40.392 87.6742 39.864 88.4902 39.864C89.2822 39.864 89.8583 40.392 89.8583 41.184C89.8583 42 89.2822 42.528 88.4902 42.528ZM89.3783 57H87.5543V44.88H89.3783V57Z" fill="black"/>
<path d="M97.0429 57.48C94.0189 57.48 91.5229 55.92 91.3069 53.328L93.1069 52.968C93.2509 54.648 94.8829 55.824 97.0429 55.824C98.9389 55.824 100.403 54.936 100.403 53.688C100.403 52.752 99.5149 52.176 97.4749 51.768L95.5549 51.384C93.0349 50.856 91.9549 49.848 91.9549 48.072C91.9789 45.96 93.8509 44.4 96.4429 44.4C98.9869 44.4 100.883 45.768 101.339 47.736L99.5869 48.216C99.4189 46.944 98.1469 46.008 96.4189 46.008C94.8829 46.008 93.7549 46.944 93.7309 47.976C93.7309 48.864 94.4509 49.368 96.1309 49.728L98.0989 50.112C100.955 50.712 102.179 51.72 102.179 53.52C102.179 55.8 99.9709 57.48 97.0429 57.48Z" fill="black"/>
<path d="M110.079 57.48C106.215 57.48 103.383 54.672 103.383 50.808C103.383 47.088 105.975 44.4 109.575 44.4C113.127 44.4 115.455 47.088 115.503 50.832C115.503 51.048 115.503 51.312 115.479 51.552H105.279C105.543 54.072 107.487 55.824 110.103 55.824C111.999 55.824 113.607 54.84 114.279 53.52L115.863 54.168C115.071 56.112 112.791 57.48 110.079 57.48ZM105.303 49.944H113.559C113.319 47.472 111.759 46.08 109.551 46.08C107.295 46.08 105.639 47.64 105.303 49.944Z" fill="black"/>
<path d="M122.66 57.48C119.636 57.48 117.14 55.92 116.924 53.328L118.724 52.968C118.868 54.648 120.5 55.824 122.66 55.824C124.556 55.824 126.02 54.936 126.02 53.688C126.02 52.752 125.132 52.176 123.092 51.768L121.172 51.384C118.652 50.856 117.572 49.848 117.572 48.072C117.596 45.96 119.468 44.4 122.06 44.4C124.604 44.4 126.5 45.768 126.956 47.736L125.204 48.216C125.036 46.944 123.764 46.008 122.036 46.008C120.5 46.008 119.372 46.944 119.348 47.976C119.348 48.864 120.068 49.368 121.748 49.728L123.716 50.112C126.572 50.712 127.796 51.72 127.796 53.52C127.796 55.8 125.588 57.48 122.66 57.48Z" fill="black"/>
<path d="M145.019 39.144L142.235 42.624L141.515 42.024L144.275 38.568L145.019 39.144ZM142.715 57.48C138.395 57.48 135.371 54.744 135.371 50.784C135.347 46.896 138.059 44.232 141.995 44.232C145.835 44.232 148.355 46.776 148.379 50.472C148.379 50.952 148.307 51.48 148.211 51.864H139.139C139.355 53.64 140.843 54.792 142.859 54.792C144.395 54.792 145.835 54.096 146.555 53.112L148.643 54.72C147.659 56.352 145.355 57.48 142.715 57.48ZM139.115 49.752H144.659C144.539 47.928 143.507 46.848 141.995 46.848C140.459 46.848 139.331 48.024 139.115 49.752Z" fill="black"/>
<path d="M156.268 57.48C152.308 57.48 149.645 54.792 149.645 50.856C149.645 46.92 152.237 44.232 156.053 44.232C159.149 44.232 161.549 46.08 162.077 48.816L158.74 49.68C158.476 48.072 157.396 47.208 156.148 47.208C154.492 47.208 153.292 48.672 153.292 50.856C153.316 53.04 154.613 54.504 156.389 54.504C157.925 54.504 159.149 53.352 159.34 51.672L162.749 52.152C162.413 55.32 159.772 57.48 156.268 57.48Z" fill="black"/>
<path d="M170.523 57.48C166.419 57.48 163.707 54.864 163.707 50.856C163.707 46.848 166.419 44.232 170.523 44.232C174.651 44.232 177.363 46.848 177.363 50.856C177.363 54.864 174.651 57.48 170.523 57.48ZM170.523 54.432C172.491 54.432 173.739 53.064 173.739 50.856C173.739 48.648 172.491 47.28 170.523 47.28C168.555 47.28 167.307 48.648 167.307 50.856C167.307 53.064 168.555 54.432 170.523 54.432Z" fill="black"/>
<path d="M182.529 57H178.857V39.192H182.529V57Z" fill="black"/>
<path d="M190.867 57.48C186.763 57.48 184.051 54.864 184.051 50.856C184.051 46.848 186.763 44.232 190.867 44.232C194.995 44.232 197.707 46.848 197.707 50.856C197.707 54.864 194.995 57.48 190.867 57.48ZM190.867 54.432C192.835 54.432 194.083 53.064 194.083 50.856C194.083 48.648 192.835 47.28 190.867 47.28C188.899 47.28 187.651 48.648 187.651 50.856C187.651 53.064 188.899 54.432 190.867 54.432Z" fill="black"/>
<path d="M204.601 62.52C202.057 62.52 199.561 61.608 198.217 60.24L199.489 57.504C200.569 58.704 202.441 59.472 204.289 59.472C206.809 59.472 208.441 58.008 208.441 55.68V54.696H208.417C207.577 56.088 205.873 56.952 204.193 56.952C200.929 56.952 198.793 54.48 198.793 50.688C198.793 46.872 200.905 44.376 204.073 44.376C205.897 44.376 207.649 45.432 208.441 47.04H208.465L209.017 44.712H212.113V55.8C212.113 59.904 209.161 62.52 204.601 62.52ZM205.513 53.976C207.361 53.976 208.585 52.608 208.585 50.688C208.585 48.744 207.361 47.328 205.513 47.328C203.689 47.328 202.441 48.672 202.441 50.688C202.441 52.656 203.689 53.976 205.513 53.976Z" fill="black"/>
<path d="M215.957 43.032C214.661 43.032 213.797 42.192 213.797 40.944C213.797 39.672 214.661 38.832 215.957 38.832C217.253 38.832 218.141 39.672 218.141 40.944C218.141 42.192 217.253 43.032 215.957 43.032ZM217.781 57H214.133V44.712H217.781V57Z" fill="black"/>
<path d="M232.834 62.04H229.162V54.648H229.138C228.274 56.424 226.786 57.36 224.89 57.36C221.674 57.36 219.418 54.744 219.418 50.856C219.418 46.944 221.674 44.352 224.89 44.352C226.81 44.352 228.322 45.288 229.186 47.064H229.21L229.762 44.712H232.834V62.04ZM226.186 54.24C228.01 54.24 229.306 52.776 229.306 50.856C229.306 48.912 228.01 47.448 226.186 47.448C224.386 47.448 223.066 48.888 223.066 50.856C223.066 52.776 224.386 54.24 226.186 54.24Z" fill="black"/>
<path d="M238.74 57.36C236.22 57.36 234.684 55.8 234.684 53.184V44.712H238.356V52.056C238.356 53.448 239.148 54.312 240.42 54.312C242.004 54.312 243.108 53.184 243.108 51.504V44.712H246.78V57H243.684L243.132 54.768H243.108C242.22 56.424 240.684 57.36 238.74 57.36Z" fill="black"/>
<path d="M255.66 57.48C251.34 57.48 248.316 54.744 248.316 50.784C248.292 46.896 251.004 44.232 254.94 44.232C258.78 44.232 261.3 46.776 261.324 50.472C261.324 50.952 261.252 51.48 261.156 51.864H252.084C252.3 53.64 253.788 54.792 255.804 54.792C257.34 54.792 258.78 54.096 259.5 53.112L261.588 54.72C260.604 56.352 258.3 57.48 255.66 57.48ZM252.06 49.752H257.604C257.484 47.928 256.452 46.848 254.94 46.848C253.404 46.848 252.276 48.024 252.06 49.752Z" fill="black"/>
<path d="M268.494 57.432C265.182 57.432 262.638 55.92 262.47 53.184L265.662 52.824C265.782 54.144 267.054 54.984 268.71 54.984C270.078 54.984 271.182 54.384 271.182 53.544C271.182 52.8 270.438 52.368 268.71 52.08L266.886 51.792C264.174 51.36 263.022 50.328 263.022 48.312C263.022 45.816 265.158 44.28 268.302 44.28C271.206 44.28 273.39 45.744 273.702 47.904L270.582 48.36C270.486 47.304 269.502 46.632 268.182 46.632C267.03 46.632 266.166 47.232 266.142 47.976C266.142 48.6 266.766 48.984 268.23 49.248L270.054 49.56C273.15 50.112 274.47 51.216 274.47 53.256C274.47 55.8 272.022 57.432 268.494 57.432Z" fill="black"/>
<path d="M275.842 60.168L276.106 59.328C277.306 59.688 278.314 58.584 278.242 57.144C277.186 57.528 276.346 56.832 276.37 55.968C276.37 55.2 276.922 54.672 277.666 54.672C278.53 54.672 279.154 55.392 279.154 56.976C279.154 59.304 277.762 60.648 275.842 60.168Z" fill="black"/>
<path d="M39.861 84.432C36.549 84.432 34.005 82.92 33.837 80.184L37.029 79.824C37.149 81.144 38.421 81.984 40.077 81.984C41.445 81.984 42.549 81.384 42.549 80.544C42.549 79.8 41.805 79.368 40.077 79.08L38.253 78.792C35.541 78.36 34.389 77.328 34.389 75.312C34.389 72.816 36.525 71.28 39.669 71.28C42.573 71.28 44.757 72.744 45.069 74.904L41.949 75.36C41.853 74.304 40.869 73.632 39.549 73.632C38.397 73.632 37.533 74.232 37.509 74.976C37.509 75.6 38.133 75.984 39.597 76.248L41.421 76.56C44.517 77.112 45.837 78.216 45.837 80.256C45.837 82.8 43.389 84.432 39.861 84.432Z" fill="black"/>
<path d="M53.6167 84.48C49.5127 84.48 46.8008 81.864 46.8008 77.856C46.8008 73.848 49.5127 71.232 53.6167 71.232C57.7447 71.232 60.4567 73.848 60.4567 77.856C60.4567 81.864 57.7447 84.48 53.6167 84.48ZM53.6167 81.432C55.5847 81.432 56.8327 80.064 56.8327 77.856C56.8327 75.648 55.5847 74.28 53.6167 74.28C51.6487 74.28 50.4007 75.648 50.4007 77.856C50.4007 80.064 51.6487 81.432 53.6167 81.432Z" fill="black"/>
<path d="M68.1669 84.48C64.2069 84.48 61.5429 81.792 61.5429 77.856C61.5429 73.92 64.1349 71.232 67.9509 71.232C71.0469 71.232 73.4469 73.08 73.9749 75.816L70.6389 76.68C70.3749 75.072 69.2949 74.208 68.0469 74.208C66.3909 74.208 65.1909 75.672 65.1909 77.856C65.2149 80.04 66.5109 81.504 68.2869 81.504C69.8229 81.504 71.0469 80.352 71.2389 78.672L74.6469 79.152C74.3109 82.32 71.6709 84.48 68.1669 84.48Z" fill="black"/>
<path d="M77.9334 70.032C76.6374 70.032 75.7734 69.192 75.7734 67.944C75.7734 66.672 76.6374 65.832 77.9334 65.832C79.2294 65.832 80.1174 66.672 80.1174 67.944C80.1174 69.192 79.2294 70.032 77.9334 70.032ZM79.7574 84H76.1094V71.712H79.7574V84Z" fill="black"/>
<path d="M85.5945 84.36C83.0265 84.36 81.2025 82.968 81.2025 80.856C81.2025 78.744 83.0265 77.208 86.6985 76.824L89.0745 76.536C89.6505 76.488 90.0345 76.152 90.0345 75.648C90.0345 74.592 89.1225 73.896 87.8025 73.896C86.3145 73.896 85.2825 74.952 85.1625 76.176L81.5865 75.624C81.8025 73.08 84.1785 71.232 87.7065 71.232C91.3065 71.232 93.6345 73.128 93.6345 76.2V80.952C93.6345 81.504 93.8745 81.84 94.2585 81.84C94.5705 81.84 94.9545 81.624 95.2185 81.288L96.0825 83.232C95.3385 83.976 94.0665 84.36 92.9385 84.36C91.4505 84.36 90.2985 83.448 90.1305 82.32L90.0825 81.888H90.0585C89.2665 83.352 87.6585 84.36 85.5945 84.36ZM86.9865 81.84C88.7145 81.84 89.9625 80.64 89.9625 78.984V78.48L87.6105 78.744C85.5705 78.984 84.8745 79.632 84.8745 80.424C84.8745 81.264 85.7625 81.84 86.9865 81.84Z" fill="black"/>
<path d="M100.709 84H97.0369V66.192H100.709V84Z" fill="black"/>
<path d="M109.574 84.48C105.254 84.48 102.23 81.744 102.23 77.784C102.206 73.896 104.918 71.232 108.854 71.232C112.694 71.232 115.214 73.776 115.238 77.472C115.238 77.952 115.166 78.48 115.07 78.864H105.998C106.214 80.64 107.702 81.792 109.718 81.792C111.254 81.792 112.694 81.096 113.414 80.112L115.502 81.72C114.518 83.352 112.214 84.48 109.574 84.48ZM105.974 76.752H111.518C111.398 74.928 110.366 73.848 108.854 73.848C107.318 73.848 106.19 75.024 105.974 76.752Z" fill="black"/>
<path d="M122.408 84.432C119.096 84.432 116.552 82.92 116.384 80.184L119.576 79.824C119.696 81.144 120.968 81.984 122.624 81.984C123.992 81.984 125.096 81.384 125.096 80.544C125.096 79.8 124.352 79.368 122.624 79.08L120.8 78.792C118.088 78.36 116.936 77.328 116.936 75.312C116.936 72.816 119.072 71.28 122.216 71.28C125.12 71.28 127.304 72.744 127.616 74.904L124.496 75.36C124.4 74.304 123.416 73.632 122.096 73.632C120.944 73.632 120.08 74.232 120.056 74.976C120.056 75.6 120.68 75.984 122.144 76.248L123.968 76.56C127.064 77.112 128.384 78.216 128.384 80.256C128.384 82.8 125.936 84.432 122.408 84.432Z" fill="black"/>
<path d="M142.751 84.48C138.887 84.48 136.055 81.672 136.055 77.808C136.055 74.088 138.647 71.4 142.247 71.4C145.799 71.4 148.127 74.088 148.175 77.832C148.175 78.048 148.175 78.312 148.151 78.552H137.951C138.215 81.072 140.159 82.824 142.775 82.824C144.671 82.824 146.279 81.84 146.951 80.52L148.535 81.168C147.743 83.112 145.463 84.48 142.751 84.48ZM137.975 76.944H146.231C145.991 74.472 144.431 73.08 142.223 73.08C139.967 73.08 138.311 74.64 137.975 76.944Z" fill="black"/>
<path d="M155.127 84.48C152.847 84.48 151.311 82.944 151.311 80.736V73.392H148.647V71.88H151.311V68.28L153.135 67.848V71.88H158.559V73.392H153.135V80.544C153.135 81.912 153.975 82.896 155.295 82.896C156.519 82.896 157.647 82.008 157.887 80.448L159.375 81.072C159.039 83.184 157.191 84.48 155.127 84.48Z" fill="black"/>
<path d="M172.47 84.432C169.158 84.432 166.614 82.92 166.446 80.184L169.638 79.824C169.758 81.144 171.03 81.984 172.686 81.984C174.054 81.984 175.158 81.384 175.158 80.544C175.158 79.8 174.414 79.368 172.686 79.08L170.862 78.792C168.15 78.36 166.998 77.328 166.998 75.312C166.998 72.816 169.134 71.28 172.278 71.28C175.182 71.28 177.366 72.744 177.678 74.904L174.558 75.36C174.462 74.304 173.478 73.632 172.158 73.632C171.006 73.632 170.142 74.232 170.118 74.976C170.118 75.6 170.742 75.984 172.206 76.248L174.03 76.56C177.126 77.112 178.446 78.216 178.446 80.256C178.446 82.8 175.998 84.432 172.47 84.432Z" fill="black"/>
<path d="M186.226 84.48C182.122 84.48 179.41 81.864 179.41 77.856C179.41 73.848 182.122 71.232 186.226 71.232C190.354 71.232 193.066 73.848 193.066 77.856C193.066 81.864 190.354 84.48 186.226 84.48ZM186.226 81.432C188.194 81.432 189.442 80.064 189.442 77.856C189.442 75.648 188.194 74.28 186.226 74.28C184.258 74.28 183.01 75.648 183.01 77.856C183.01 80.064 184.258 81.432 186.226 81.432Z" fill="black"/>
<path d="M198.232 84H194.56V66.192H198.232V84Z" fill="black"/>
<path d="M202.082 70.032C200.786 70.032 199.922 69.192 199.922 67.944C199.922 66.672 200.786 65.832 202.082 65.832C203.378 65.832 204.266 66.672 204.266 67.944C204.266 69.192 203.378 70.032 202.082 70.032ZM203.906 84H200.258V71.712H203.906V84Z" fill="black"/>
<path d="M211.015 84.36C207.799 84.36 205.543 81.744 205.543 77.856C205.543 73.944 207.799 71.352 211.015 71.352C212.911 71.352 214.399 72.288 215.263 74.064H215.287V66.192H218.959V84H215.887L215.335 81.648H215.311C214.447 83.424 212.935 84.36 211.015 84.36ZM212.311 81.264C214.135 81.264 215.431 79.776 215.431 77.856C215.431 75.912 214.135 74.448 212.311 74.448C210.511 74.448 209.191 75.912 209.191 77.856C209.191 79.8 210.511 81.264 212.311 81.264Z" fill="black"/>
<path d="M224.673 84.36C222.105 84.36 220.281 82.968 220.281 80.856C220.281 78.744 222.105 77.208 225.777 76.824L228.153 76.536C228.729 76.488 229.113 76.152 229.113 75.648C229.113 74.592 228.201 73.896 226.881 73.896C225.393 73.896 224.361 74.952 224.241 76.176L220.665 75.624C220.881 73.08 223.257 71.232 226.785 71.232C230.385 71.232 232.713 73.128 232.713 76.2V80.952C232.713 81.504 232.953 81.84 233.337 81.84C233.649 81.84 234.033 81.624 234.297 81.288L235.161 83.232C234.417 83.976 233.145 84.36 232.017 84.36C230.529 84.36 229.377 83.448 229.209 82.32L229.161 81.888H229.137C228.345 83.352 226.737 84.36 224.673 84.36ZM226.065 81.84C227.793 81.84 229.041 80.64 229.041 78.984V78.48L226.689 78.744C224.649 78.984 223.953 79.632 223.953 80.424C223.953 81.264 224.841 81.84 226.065 81.84Z" fill="black"/>
<path d="M238.035 70.032C236.739 70.032 235.875 69.192 235.875 67.944C235.875 66.672 236.739 65.832 238.035 65.832C239.331 65.832 240.219 66.672 240.219 67.944C240.219 69.192 239.331 70.032 238.035 70.032ZM239.859 84H236.211V71.712H239.859V84Z" fill="black"/>
<path d="M248.864 71.328C251 71.328 252.464 72.888 252.752 75.624L249.656 76.464C249.536 74.952 248.84 74.088 247.784 74.088C246.416 74.088 245.576 75.288 245.576 77.304V84H241.904V71.712H244.832L245.384 73.704H245.408C246.08 72.216 247.352 71.328 248.864 71.328Z" fill="black"/>
<path d="M260.887 84.48C256.567 84.48 253.543 81.744 253.543 77.784C253.519 73.896 256.231 71.232 260.167 71.232C264.007 71.232 266.527 73.776 266.551 77.472C266.551 77.952 266.479 78.48 266.383 78.864H257.311C257.527 80.64 259.015 81.792 261.031 81.792C262.567 81.792 264.007 81.096 264.727 80.112L266.815 81.72C265.831 83.352 263.527 84.48 260.887 84.48ZM257.287 76.752H262.831C262.711 74.928 261.679 73.848 260.167 73.848C258.631 73.848 257.503 75.024 257.287 76.752Z" fill="black"/>
<path d="M273.72 84.432C270.408 84.432 267.864 82.92 267.696 80.184L270.888 79.824C271.008 81.144 272.28 81.984 273.936 81.984C275.304 81.984 276.408 81.384 276.408 80.544C276.408 79.8 275.664 79.368 273.936 79.08L272.112 78.792C269.4 78.36 268.248 77.328 268.248 75.312C268.248 72.816 270.384 71.28 273.528 71.28C276.432 71.28 278.616 72.744 278.928 74.904L275.808 75.36C275.712 74.304 274.728 73.632 273.408 73.632C272.256 73.632 271.392 74.232 271.368 74.976C271.368 75.6 271.992 75.984 273.456 76.248L275.28 76.56C278.376 77.112 279.696 78.216 279.696 80.256C279.696 82.8 277.248 84.432 273.72 84.432Z" fill="black"/>
<path d="M340.051 38.3422L340.184 38.1033C342.978 39.1643 345.795 40.3032 348.634 41.5142L349.317 42.2364C349.417 42.103 349.572 41.9142 349.695 41.9475C350.195 42.103 353.961 43.603 354.111 43.7918C354.222 43.9307 354.239 44.1085 354.228 44.2807C354.289 44.1363 354.411 43.9252 354.511 43.9529C355.833 44.3474 359.333 45.7528 360.477 46.425L360.544 46.8972L361.1 46.6861C361.338 46.6861 365.366 48.3249 365.516 48.5082C365.633 48.6471 365.649 48.8249 365.633 48.9971L366.616 48.9637C369.305 50.0692 371.977 51.1858 374.626 52.308L374.699 52.5802L402.797 64.3239L400.014 71.0624L372.049 59.502L371.716 59.8075L363.527 56.3633L362.849 55.6355C362.749 55.7689 362.605 55.9522 362.472 55.9244C361.872 55.7911 358.822 54.5301 358.277 54.2078L358.155 53.7134C358.055 53.8468 357.9 54.0412 357.778 54.0023C356.489 53.5801 352.456 52.0469 351.472 51.3969L351.35 50.9025C351.25 51.0303 351.095 51.2247 350.978 51.1914C350.128 50.9358 348.439 50.2192 347.645 49.797C346.984 49.6637 346.656 49.3804 346.65 48.936L345.662 48.9748L339.34 46.3972L337.951 45.8306L337.884 45.3584C337.618 45.3862 337.39 45.3417 337.212 45.2195C336.957 44.9251 336.623 44.7695 336.123 44.6362L309.464 33.6147L312.264 26.8984L340.045 38.3477L340.051 38.3422Z" fill="#FED202"/>
<path d="M358.155 53.7079C358.283 53.8078 358.477 53.9634 358.438 54.0856C358.172 54.9244 357.389 56.7632 356.955 57.5298C356.827 58.1409 356.55 58.4409 356.122 58.4242L356.155 59.4186L352.961 67.157L352.489 67.2237C352.528 67.4514 352.489 67.6181 352.372 67.7236L340.762 95.5775L334.012 92.7777L345.684 64.6905L345.378 64.3572C346.495 61.6851 347.617 59.0075 348.734 56.3299L349.461 55.6466C349.328 55.5466 349.133 55.4022 349.167 55.28C349.322 54.6522 350.55 51.4969 350.867 51.0136L351.356 50.8914L358.155 53.7079Z" fill="#0A2CFC"/>
<path d="M366.649 33.1313C366.794 33.209 366.994 33.359 366.955 33.4646C366.138 35.7089 364.927 38.7309 363.855 40.8419C363.683 41.4363 363.35 41.8252 362.844 42.1918C362.983 42.2696 363.188 42.4085 363.155 42.514C362.988 43.0418 361.472 46.8915 361.244 46.9749L360.544 46.9026L354.228 44.2861C354.095 44.1861 353.9 44.0361 353.933 43.9195C354.106 43.3529 355.572 39.7086 355.828 39.592C355.917 39.5531 356.022 39.5531 356.133 39.5698L356.1 38.5754L359.361 30.5981L359.833 30.5259L371.538 2.3443L378.265 5.13857L366.66 33.1424L366.649 33.1313Z" fill="#0A2CFC"/>
<path d="M374.415 45.3361L374.443 45.7694L366.721 48.9859C366.371 49.0581 366.01 49.0581 365.627 48.997L360.533 46.8971C360.849 46.8749 360.977 46.6916 361.105 46.3749L362.833 42.1808L363.516 41.4641C366.166 40.392 368.816 39.3143 371.465 38.2421L371.843 38.531L400.008 26.8706L402.813 33.6091L374.404 45.3361H374.415Z" fill="#F868C2"/>
<path d="M351.355 50.8968L349.461 55.6521L348.789 56.3687L341.539 59.3296C341.073 59.6796 340.673 59.7574 340.339 59.5741L312.258 71.0622L309.458 64.346L337.662 52.6745C337.617 52.519 337.573 52.2745 337.678 52.2245C339.767 51.2246 342.434 50.1302 344.622 49.3358C345.3 49.0136 345.884 48.7747 346.656 48.9358L351.355 50.9024V50.8968Z" fill="#F868C2"/>
<path d="M362.844 55.6299L363.572 56.3021L366.972 64.396L366.688 64.7794L378.249 92.7887L371.521 95.5941L359.739 67.5125C359.4 67.4403 359.2 67.157 359.133 66.6626L356.089 59.4019L356.122 58.4242L358.155 53.7078L362.844 55.6299Z" fill="#FE110E"/>
<path d="M352.367 30.0759C352.495 30.2148 352.545 30.437 352.511 30.7425L352.961 30.7592L356.033 38.2532C356.189 38.6532 356.222 39.0865 356.128 39.5587L354.222 44.275L349.317 42.2251L348.606 41.5474L345.528 33.8534C345.284 33.559 345.228 33.2702 345.362 32.9757L334.018 5.13302L340.762 2.3443L352.367 30.0704V30.0759Z" fill="#FE110E"/>
<path d="M372.043 59.5019L393.42 81.0116L390.075 84.3003L388.126 86.1447L366.688 64.7849L362.844 55.6299L372.043 59.5019Z" fill="#01B835"/>
<path d="M359.744 67.518V98.005L352.378 97.9661L352.367 68.3402L352.489 67.2236L356.122 58.4241L359.511 66.5125C359.661 66.8792 359.75 67.2014 359.738 67.518H359.744Z" fill="#00ADEE"/>
<path d="M345.361 32.9813C345.55 33.1313 345.772 33.3813 345.895 33.6869L349.311 42.2308L340.684 38.681L340.045 38.3366L318.885 16.9823L324.107 11.766L345.361 32.9758V32.9813Z" fill="#01B835"/>
<path d="M374.693 52.5801C374.315 52.5801 373.96 52.4579 373.543 52.2857L365.627 48.997L374.415 45.3361C374.849 45.6416 375.31 45.2305 375.787 45.2305L405.174 45.2194V52.5745H374.693V52.5801Z" fill="#005E0A"/>
<path d="M359.822 30.5203L356.128 39.5642L352.511 30.7425L352.367 29.4648L352.378 0.0388863L359.744 0L359.822 30.5203Z" fill="#00ADEE"/>
<path d="M336.601 45.2139L337.89 45.3527L346.656 48.9303L337.662 52.669L307.108 52.5856L307.147 45.225L336.601 45.2139Z" fill="#005E0A"/>
<path d="M349.461 55.6522L345.684 64.6905L324.002 86.1391L318.885 81.0228L340.345 59.5797C340.645 59.2908 341.045 59.0964 341.506 58.9075L349.461 55.6577V55.6522Z" fill="#FE5700"/>
<path d="M371.854 38.5309L362.838 42.1862L366.649 33.1312L388.203 11.7714L393.336 16.8767L371.854 38.5309Z" fill="#FE5700"/>
<path d="M337.212 45.2139C337.451 45.2139 337.673 45.2639 337.884 45.3527C337.445 45.4472 336.912 45.5305 336.595 45.2139H337.212Z" fill="#8EB68A"/>
<path d="M352.511 30.7425C352.422 30.5314 352.367 30.3147 352.367 30.0759V29.4592C352.683 29.7759 352.6 30.3036 352.511 30.7425Z" fill="#8FD0EC"/>
<path d="M352.367 68.3346V67.7179C352.378 67.5624 352.428 67.3679 352.489 67.218C352.606 67.6013 352.672 68.079 352.367 68.3346Z" fill="#89D6F6"/>
</svg>
